<svg width="39" height="39" viewBox="0 0 39 39" fill="none" xmlns="http://www.w3.org/2000/svg">
<path d="M38.4 19.2C38.4 8.595 29.805 0 19.2 0C8.595 0 0 8.595 0 19.2C0 28.2 6.2025 35.76 14.565 37.8375V25.065H10.605V19.2H14.565V16.6725C14.565 10.14 17.52 7.11 23.94 7.11C25.155 7.11 27.255 7.35 28.1175 7.59V12.9C27.6675 12.855 26.88 12.825 25.8975 12.825C22.7475 12.825 21.5325 14.0175 21.5325 17.115V19.2H27.8025L26.7225 25.065H21.525V38.2575C31.035 37.11 38.4 29.0175 38.4 19.2Z" fill="white"/>
</svg>
