<svg width="37" height="37" viewBox="0 0 37 37" fill="none" xmlns="http://www.w3.org/2000/svg">
<path d="M18.2017 8.8758C13.0378 8.8758 8.87249 13.0464 8.87249 18.217C8.87249 23.3876 13.0378 27.5583 18.2017 27.5583C23.3657 27.5583 27.5309 23.3876 27.5309 18.217C27.5309 13.0464 23.3657 8.8758 18.2017 8.8758ZM18.2017 24.2901C14.8646 24.2901 12.1365 21.5665 12.1365 18.217C12.1365 14.8675 14.8565 12.144 18.2017 12.144C21.5469 12.144 24.2669 14.8675 24.2669 18.217C24.2669 21.5665 21.5388 24.2901 18.2017 24.2901ZM30.0885 8.49369C30.0885 9.70505 29.1142 10.6725 27.9125 10.6725C26.7027 10.6725 25.7365 9.69692 25.7365 8.49369C25.7365 7.29047 26.7109 6.31489 27.9125 6.31489C29.1142 6.31489 30.0885 7.29047 30.0885 8.49369ZM36.2674 10.705C36.1294 7.78639 35.4636 5.20109 33.3282 3.07106C31.2009 0.941034 28.6189 0.274384 25.7041 0.128046C22.6999 -0.0426819 13.6954 -0.0426819 10.6912 0.128046C7.78449 0.266254 5.20252 0.932904 3.06711 3.06293C0.931704 5.19296 0.27403 7.77826 0.127881 10.6969C-0.0426269 13.7049 -0.0426269 22.721 0.127881 25.729C0.265911 28.6477 0.931704 31.233 3.06711 33.363C5.20252 35.493 7.77637 36.1597 10.6912 36.306C13.6954 36.4767 22.6999 36.4767 25.7041 36.306C28.6189 36.1678 31.2009 35.5012 33.3282 33.363C35.4555 31.233 36.1213 28.6477 36.2674 25.729C36.4379 22.721 36.4379 13.7131 36.2674 10.705ZM32.3863 28.9566C31.753 30.5501 30.527 31.7777 28.9275 32.4199C26.5322 33.3711 20.8486 33.1516 18.2017 33.1516C15.5548 33.1516 9.86306 33.363 7.47596 32.4199C5.88455 31.7858 4.65852 30.5582 4.01708 28.9566C3.06711 26.5583 3.28634 20.8674 3.28634 18.217C3.28634 15.5667 3.07523 9.86764 4.01708 7.47746C4.6504 5.884 5.87643 4.65639 7.47596 4.01413C9.87118 3.06293 15.5548 3.28244 18.2017 3.28244C20.8486 3.28244 26.5404 3.07106 28.9275 4.01413C30.5189 4.64826 31.7449 5.87587 32.3863 7.47746C33.3363 9.87577 33.1171 15.5667 33.1171 18.217C33.1171 20.8674 33.3363 26.5664 32.3863 28.9566Z" fill="white"/>
</svg>
